<svg width="344" height="146" viewBox="0 0 344 146" fill="none" xmlns="http://www.w3.org/2000/svg">
<path d="M148.709 99.7739H143.094V108.857H135.025V81.4492H148.709C155.866 81.4492 160.065 84.837 160.065 90.6092C160.065 96.3813 155.866 99.7691 148.709 99.7691V99.7739ZM147.461 86.9968H143.094V94.2311H147.461C150.413 94.2311 151.997 93.2324 151.997 90.6139C151.997 87.9954 150.418 86.9968 147.461 86.9968Z" fill="white"/>
<path d="M162.979 108.861V81.4531H171.047V102.779H184.275V108.861H162.979Z" fill="white"/>
<path d="M208.068 108.861L206.57 104.59H195.257L193.76 108.861H185.523L195.92 81.4531H205.903L216.299 108.861H208.063H208.068ZM200.911 88.0758L197.168 98.8938H204.655L200.911 88.0758Z" fill="white"/>
<path d="M236.688 108.861L226.042 92.2329V108.861H218.392V81.4531H226.877L237.523 98.0815V81.4531H245.174V108.861H236.688Z" fill="white"/>
<path d="M249.335 108.861V81.4531H272.378V87.5359H257.403V92.0418H271.044V97.7375H257.403V102.779H272.378V108.861H249.335Z" fill="white"/>
<path d="M282.319 108.861V87.5359H273.79V81.4531H298.912V87.5359H290.387V108.861H282.319Z" fill="white"/>
<path d="M154.829 73.455L150.96 56.4778L147.092 73.455H137.358L129.371 46.0469H138.063L142.474 64.5244L146.842 46.0469H155.078L159.446 64.5244L163.857 46.0469H172.549L164.563 73.455H154.829Z" fill="white"/>
<path d="M174.628 73.455V46.0469H197.671V52.1296H182.696V56.6355H196.337V62.3312H182.696V67.3723H197.671V73.455H174.628Z" fill="white"/>
<path d="M199.505 59.7513C199.505 51.3989 205.37 45.6602 214.936 45.6602C224.502 45.6602 228.869 50.4336 228.869 55.36H221.55C220.72 53.3579 218.555 51.7429 214.936 51.7429C210.026 51.7429 207.573 54.5525 207.573 59.7513C207.573 64.95 210.026 67.7597 214.936 67.7597C219.011 67.7597 221.132 65.9105 221.631 62.7568H215.723V57.754H229.282V73.4601H223.671V70.0723C222.174 72.6526 218.632 73.8424 214.101 73.8424C204.952 73.8424 199.5 68.1085 199.5 59.7513H199.505Z" fill="white"/>
<path d="M247.017 45.6699C237.624 45.7512 231.854 51.3943 231.792 59.6129C243.508 59.0969 246.35 56.6838 247.017 45.6699Z" fill="white"/>
<path d="M262.64 59.6129C262.577 51.3943 256.808 45.7464 247.415 45.6699C248.082 56.6886 250.924 59.0969 262.64 59.6129Z" fill="white"/>
<path d="M231.792 59.8848C231.854 68.1034 237.624 73.7513 247.017 73.8278C246.35 62.8091 243.508 60.4008 231.792 59.8848Z" fill="white"/>
<path d="M247.415 73.8336C256.808 73.7524 262.577 68.1092 262.64 59.8906C250.924 60.4067 248.082 62.8197 247.415 73.8336Z" fill="white"/>
<path d="M82.3297 37.1693C81.9218 37.155 81.5138 37.1406 81.1058 37.1406C61.211 37.1406 45.084 53.1956 45.084 73.0015C45.084 73.3695 45.1032 73.7374 45.1128 74.1053C74.4102 72.7101 80.9186 66.2737 82.3297 37.1741V37.1693Z" fill="white"/>
<path d="M117.127 73.923V73.0008C117.127 53.8543 102.056 38.215 83.0781 37.1973C84.4412 65.1979 90.5369 72.1981 117.127 73.9278V73.923Z" fill="white"/>
<path d="M83.2412 108.863H117.127V75.0137C91.4775 76.6765 84.8971 83.2657 83.2412 108.863Z" fill="white"/>
<path d="M45.1318 74.8359C46.0918 93.7866 61.83 108.862 81.1057 108.862H82.1664C80.4433 82.247 73.4069 76.1834 45.1318 74.8359Z" fill="white"/>
</svg>
