<svg width="221" height="94" viewBox="0 0 221 94" fill="none" xmlns="http://www.w3.org/2000/svg">
<path d="M95.5372 64.2387H91.9295V70.087H86.7461V52.4407H95.5372C100.135 52.4407 102.833 54.6218 102.833 58.3381C102.833 62.0545 100.135 64.2356 95.5372 64.2356V64.2387ZM94.7355 56.0124H91.9295V60.6701H94.7355C96.6319 60.6701 97.6495 60.0271 97.6495 58.3412C97.6495 56.6553 96.635 56.0124 94.7355 56.0124Z" fill="#161616"/>
<path d="M104.705 70.0901V52.4437H109.888V66.1738H118.387V70.0901H104.705Z" fill="#161616"/>
<path d="M133.671 70.0901L132.709 67.3397H125.441L124.479 70.0901H119.188L125.866 52.4437H132.28L138.959 70.0901H133.668H133.671ZM129.073 56.7076L126.668 63.6727H131.478L129.073 56.7076Z" fill="#161616"/>
<path d="M152.059 70.0901L145.22 59.3841V70.0901H140.305V52.4437H145.756L152.596 63.1497V52.4437H157.511V70.0901H152.059Z" fill="#161616"/>
<path d="M160.184 70.0901V52.4437H174.988V56.36H165.367V59.2611H174.13V62.9282H165.367V66.1738H174.988V70.0901H160.184Z" fill="#161616"/>
<path d="M181.374 70.0901V56.36H175.895V52.4437H192.034V56.36H186.557V70.0901H181.374Z" fill="#161616"/>
<path d="M99.4683 47.2938L96.983 36.3633L94.4977 47.2938H88.2443L83.1133 29.6475H88.6976L91.5313 41.544L94.3373 29.6475H99.6287L102.435 41.544L105.268 29.6475H110.853L105.722 47.2938H99.4683Z" fill="#161616"/>
<path d="M112.188 47.2938V29.6475H126.992V33.5637H117.371V36.4648H126.134V40.1319H117.371V43.3775H126.992V47.2938H112.188Z" fill="#161616"/>
<path d="M128.169 38.4706C128.169 33.093 131.937 29.3983 138.083 29.3983C144.228 29.3983 147.034 32.4716 147.034 35.6434H142.332C141.798 34.3544 140.408 33.3145 138.083 33.3145C134.928 33.3145 133.353 35.1235 133.353 38.4706C133.353 41.8178 134.928 43.6267 138.083 43.6267C140.701 43.6267 142.064 42.4361 142.384 40.4057H138.588V37.1847H147.299V47.2969H143.695V45.1157C142.733 46.777 140.457 47.543 137.546 47.543C131.669 47.543 128.166 43.8513 128.166 38.4706H128.169Z" fill="#161616"/>
<path d="M158.693 29.4044C152.659 29.4567 148.952 33.09 148.912 38.3814C156.439 38.0492 158.264 36.4956 158.693 29.4044Z" fill="#161616"/>
<path d="M168.73 38.3814C168.69 33.09 164.984 29.4536 158.949 29.4044C159.378 36.4986 161.203 38.0492 168.73 38.3814Z" fill="#161616"/>
<path d="M148.912 38.5568C148.952 43.8482 152.659 47.4845 158.693 47.5338C158.264 40.4395 156.439 38.889 148.912 38.5568Z" fill="#161616"/>
<path d="M158.949 47.5368C164.984 47.4845 168.69 43.8513 168.73 38.5598C161.203 38.8921 159.378 40.4457 158.949 47.5368Z" fill="#161616"/>
<path d="M52.8911 23.9315C52.629 23.9222 52.3669 23.913 52.1048 23.913C39.3236 23.913 28.9629 34.2498 28.9629 47.0015C28.9629 47.2384 28.9752 47.4753 28.9814 47.7122C47.8033 46.8139 51.9846 42.6699 52.8911 23.9345V23.9315Z" fill="#4A2BE2"/>
<path d="M75.2476 47.5953V47.0015C75.2476 34.6743 65.5653 24.6052 53.373 23.9499C54.2488 41.9777 58.1649 46.4847 75.2476 47.5984V47.5953Z" fill="#4A2BE2"/>
<path d="M53.4766 70.0901H75.2463V48.2967C58.7679 49.3673 54.5404 53.6097 53.4766 70.0901Z" fill="#4A2BE2"/>
<path d="M28.9941 48.1829C29.6108 60.384 39.7218 70.0901 52.1052 70.0901H52.7867C51.6797 52.9544 47.1592 49.0504 28.9941 48.1829Z" fill="#4A2BE2"/>
</svg>
